/* XPM */
static char *db80327c03b445ebba76406db665cad3Cnbn0d7IWdAO7Jak[] = {
/* columns rows colors chars-per-pixel */
"64 64 5 1 ",
"  c #4FA4B8",
". c #50A4B8",
"X c #92E8C0",
"o c #F4FFE8",
"O c #F5FFE8",
/* pixels */
"XXXX    XXXX    XXXX    XXXX                OOOOXXXX    XXXX    ",
"XXXX    XXXX    XXXX    XXXX                OOOOXXXX    XXXX    ",
"XXXX    XXXX    XXXX    XXXX                OOOOXXXX    XXXX    ",
"XXXX    XXXX    XXXX    XXXX                OOOOXXXX    XXXX    ",
"                                        OOOOXXXXOOOO            ",
"                                        OOOOXXXXOOOO            ",
"                                        OOOOXXXXOOOO            ",
"                                        OOOOXXXXOOOO            ",
"                                    OOOOXXXXXXXXXXXXOOOO        ",
"                                    OOOOXXXXXXXXXXXXOOOO        ",
"                                    OOOOXXXXXXXXXXXXOOOO        ",
"                                    OOOOXXXXXXXXXXXXOOOO        ",
"    OOOO            OOOO    OOOOOOOOXXXXXXXX    XXXXXXXXOOOOOOOO",
"    OOOO            OOOO    OOOOOOOOXXXXXXXX    XXXXXXXXOOOOOOOO",
"    OOOO            OOOO    OOOOOOOOXXXXXXXX    XXXXXXXXOOOOOOOO",
"    OOOO            OOOO    OOOOOOOOXXXXXXXX    XXXXXXXXOOOOOOOO",
"OOOO    XXXX    XXXX    OOOOXXXXXXXXXXXX    XXXX    XXXXXXXXXXXX",
"OOOO    XXXX    XXXX    OOOOXXXXXXXXXXXX    XXXX    XXXXXXXXXXXX",
"OOOO    XXXX    XXXX    OOOOXXXXXXXXXXXX    XXXX    XXXXXXXXXXXX",
"OOOO    XXXX    XXXX    OOOOXXXXXXXXXXXX    XXXX    XXXXXXXXXXXX",
"XXXX                        OOOOXXXX    XXXX    XXXX    XXXX    ",
"XXXX                        OOOOXXXX    XXXX    XXXX    XXXX    ",
"XXXX                        OOOOXXXX    XXXX    XXXX    XXXX    ",
"XXXX                        OOOOXXXX    XXXX    XXXX    XXXX    ",
"                        OOOOXXXXOOOO                            ",
"                        OOOOXXXXOOOO                            ",
"                        OOOOXXXXOOOO                            ",
"                        OOOOXXXXOOOO                            ",
"                    OOOOXXXXXXXXXXXXOOOO                        ",
"                    OOOOXXXXXXXXXXXXOOOO                        ",
"                    OOOOXXXXXXXXXXXXOOOO                        ",
"                    OOOOXXXXXXXXXXXXOOOO                        ",
"    OOOO    OOOOOOOOXXXXXXXX    XXXXXXXXOOOOOOOO    OOOO        ",
"    OOOO    OOOOOOOOXXXXXXXX    XXXXXXXXOOOOOOOO    OOOO        ",
"    OOOO    OOOOOOOOXXXXXXXX    XXXXXXXXOOOOOOOO    OOOO        ",
"    OOOO    OOOOOOOOXXXXXXXX    XXXXXXXXOOOOOOOO    OOOO        ",
"XXXX    OOOOXXXXXXXXXXXX    XXXX    XXXXXXXXXXXXOOOO    XXXX    ",
"XXXX    OOOOXXXXXXXXXXXX    XXXX    XXXXXXXXXXXXOOOO    XXXX    ",
"XXXX    OOOOXXXXXXXXXXXX    XXXX    XXXXXXXXXXXXOOOO    XXXX    ",
"XXXX    OOOOXXXXXXXXXXXX    XXXX    XXXXXXXXXXXXOOOO    XXXX    ",
"        XXXX    XXXX    XXXX    XXXX    XXXX    XXXX            ",
"        XXXX    XXXX    XXXX    XXXX    XXXX    XXXX            ",
"        XXXX    XXXX    XXXX    XXXX    XXXX    XXXX            ",
"        XXXX    XXXX    XXXX    XXXX    XXXX    XXXX            ",
"    OOOO                                                        ",
"    OOOO                                                        ",
"    OOOO                                                        ",
"    OOOO                                                        ",
"OOOOXXXXOOOO                                                    ",
"OOOOXXXXOOOO                                                    ",
"OOOOXXXXOOOO                                                    ",
"OOOOXXXXOOOO                                                ....",
"XXXXXXXXXXXXOOOO                                            OOOO",
"XXXXXXXXXXXXOOOO                                            OOOO",
"XXXXXXXXXXXXOOOO                                            OOOO",
"XXXXXXXXXXXXOOOO                            ..      ........OOOO",
"XXXX    XXXXXXXXOOOOOOOO    OOOO            OOOO    OOOOOOOOXXXX",
"XXXX    XXXXXXXXOOOOOOOO    OOOO            OOOO    OOOOOOOOXXXX",
"XXXX    XXXXXXXXOOOOOOOO    OOOO            OOOO    OOOOOOOOXXXX",
"XXXX    XXXXXXXXOOOOOOOO    OOOO            OOoo....OOOOOOOOXXXX",
"    XXXX    XXXXXXXXXXXXOOOO    XXXX    XXXX    OOOOXXXXXXXXXXXX",
"    XXXX    XXXXXXXXXXXXOOOO    XXXX    XXXX    OOOOXXXXXXXXXXXX",
"    XXXX    XXXXXXXXXXXXOOOO    XXXX    XXXX    OOOOXXXXXXXXXXXX",
"    XXXX    XXXXXXXXXXXXOOOO    XXXX    XXXX    OOOOXXXXXXXXXXXX"
};
