/* XPM */
static char *result[] = {
/* columns rows colors chars-per-pixel */
"64 64 25 1 ",
"  c #281C2A",
". c #291D2B",
"X c #6B2638",
"o c #3A4258",
"O c #94532F",
"+ c #D65C3C",
"@ c #AD2F45",
"# c #94654D",
"$ c #D67873",
"% c #5D8275",
"& c #FF8933",
"* c #FF9B51",
"= c #FFA56A",
"- c #FFAE70",
"; c #4C6885",
": c #4D6985",
"> c #4FA4B8",
", c #50A4B8",
"< c #8F8E89",
"1 c #FFC2A1",
"2 c #92E8C0",
"3 c #C3F3D4",
"4 c #F4FFE8",
"5 c #F5FFE8",
"6 c None",
/* pixels */
"6666666666666666666666666666666666666666666666666666666666666666",
"6666666666666666666666666666666666666666666666666666666666666666",
"6666666666666666666666666666666666666666666666666666666666666666",
"6666666666666666666666666666666666666666666666666666666666666666",
"6666666666666666666666666666666666666666666666666666666666666666",
"6666666666666666666666666666666666666666666666666666666666666666",
"6666666666666666666666666666666666666666666666666666666666666666",
"6666666666666666666666666666666666666666666666666666666666666666",
"6666666666666666666666666666666666666666666666666666666666666666",
"6666666666666666666666666666666666666666666666666666666666666666",
"6666666666666666666666666666666666666666666666666666666666666666",
"6666666666666666666666666666666666666666666666666666666666666666",
"6666666666666666666666666666666666666666666666666666666666666666",
"6666666666666666666666666666666666666666666666666666666666666666",
"6666666666666666666666666666666666666666666666666666666666666666",
"6666666666666666666666666666666666666666666666666666666666666666",
"6666666666666666666666666666 ....... 666666666666666666666666666",
"6666666666666666666666666666 ....... 666666666666666666666666666",
"66666666666666666666666666 .O&&&&&&&O. 6666666666666666666666666",
"66666666666666666666666666 .O&&&&&&&O. 6666666666666666666666666",
"666666666666666666666666 .#-*&&&&&&&&&O. 66666666666666666666666",
"666666666666666666666666 .#-*&&&&&&&&&O. 66666666666666666666666",
"6666666666666666;;;;;;;;o...#-------#... 66666666666666666666666",
"6666666666666666;;;;;;;;o...#-------#... 66666666666666666666666",
"6666666666666666;;;;;;o.#-*&O.......O&*-#. 666666666666666666666",
"6666666666666666;;;;;;o.#-*&O.......O&*-#. 666666666666666666666",
"66666666;;;;;;;;555555<.#---*&&&&&&&*---#. 666666666666666666666",
"66666666;;;;;;;;555555<.#---*&&&&&&&*---#. 666666666666666666666",
"66666666;;;;;;;;3555<.X@X...............X@X. 6666666666666666666",
"66666666;;;;;;;;3555<.X@X...............X@X. 6666666666666666666",
"6666;;;;55555555355555<.X@$1$@$111$@$1$@X. 666666666666666666666",
"6666;;;;55555555355555<.X@$1$@$111$@$1$@X. 666666666666666666666",
"6666;;;;555555553555<.X@@@@@$1111111$@@@@@X. 6666666666666666666",
"6666;;;;555555553555<.X@@@@@$1111111$@@@@@X. 6666666666666666666",
"6666;;;;22225555355522%.X@+&+@@@@@@@+&+@X. 666666666666666666666",
"6666;;;;22225555355522%.X@+&+@@@@@@@+&+@X. 666666666666666666666",
"6666;;;;22225555355522%.#-*&&&=111=&&&*-#. 666666666666666666666",
"6666;;;;22225555355522%.#-*&&&=111=&&&*-#. 666666666666666666666",
"6666555522222222222222%.#---*&+@@@+&*---#.o;;;;;6666666666666666",
"6666555522222222222222%.#---*&+@@@+&*---#.o;;;;;6666666666666666",
"66665555222222222222%.#-----*&+@@@+&*-----#.o;;;6666666666666666",
"66665555222222222222%.#-----*&+@@@+&*-----#.o;;;6666666666666666",
"666666665555;;;;;;;;o.#-----*&+@@@+&*-----#.<555;;;;;;;;66666666",
"666666665555;;;;;;;;o.#-----*&+@@@+&*-----#.<555;;;;;;;;66666666",
"666666665555;;;;;;;;o...#---*&+@@@+&*---#...<555;;;;;;;;66666666",
"666666665555;;;;;;;;o...#---*&+@@@+&*---#...<555;;;;;:::66666666",
"66666666;;;;5555555555<...................<5555555555555;;;;6666",
"66666666;;;;5555555555<...................<5555555555555;;;;6666",
"66666666;;;;55555555555555555555555555555555555555555555;;;;6666",
"66666666;;;;55555555555555555555555555555555555555554444;;;;6666",
"66666666;;;;2222555555555555555555555555555555555555>>>>;;;;6666",
"66666666;;;;2222555555555555555555555555555555555555>>>>;;;;6666",
"66666666;;;;2222555555555555555555555555555555555555>>>>;;;;6666",
"66666666;;;;2222555555555555555555555555555555554444>>>>;;;;6666",
"6666;;;;5555555555555555555555555555555555555555>>>>>>>>;;;;6666",
"6666;;;;5555555555555555555555555555555555555555>>>>>>>>;;;;6666",
"6666;;;;5555555555555555555555555555555555555555>>>>>>>>;;;;6666",
"6666;;;;5555555555555555555555555555555554444444>>>>>>>>;;;;6666",
";;;;555555555555555555555555555555555555>>>>>>>>>>>>;;;;66666666",
";;;;555555555555555555555555555555555555>>>>>>>>>>>>;;;;66666666",
";;;;555555555555555555555555555555555555>>>>>>>>>>>>;;;;66666666",
";;;;555555555555555555555555555555555555,,,,,,,,,,,,::::66666666",
";;;;2222222222225555555555555555555555555555555555555555;;;;6666",
";;;;2222222222225555555555555555555555555555555555555555;;;;6666"
};
