/* XPM */
static char *_fb35f791a47492edfdfba3282c8cb9fr23h5l6UDO16eopo[] = {
/* columns rows colors chars-per-pixel */
"64 64 9 1 ",
"  c #2C354D",
". c #404973",
"X c #414A73",
"o c #686F99",
"O c #4FA4B8",
"+ c #A3A7C2",
"@ c #92E8C0",
"# c #F4FEE7",
"$ c #F5FFE8",
/* pixels */
"@@@@OOOO@@@@OOOO@@@@OO    @@OOOOOOOOOOOOOOOO$$$$@@@@OOOO@@@@OOOO",
"@@@@OOOO@@@@OOOO@@@@OO    @@OOOOOOOOOOOOOOOO$$$$@@@@OOOO@@@@OOOO",
"@@@@OOOO@@@@OOOO@@@@OO    @@OOOOOOOOOOOOOOOO$$$$@@@@OOOO@@@@OOOO",
"@@@@OOOO@@@@OOOO@@@@OO    @@OOOOOOOOOOOOOOOO$$$$@@@@OOOO@@@@OOOO",
"OOOOOOOOOOOOOOOOOO    ++++            OO$$$$@@@@$$$$OOOOOOOOOOOO",
"OOOOOOOOOOOOOOOOOO    ++++            OO$$$$@@@@$$$$OOOOOOOOOOOO",
"OOOOOOOOOOOOOOOOOO    ++++            OO$$$$@@@@$$$$OOOOOOOOOOOO",
"OOOOOOOOOOOOOOOOOO    ++++            OO$$$$@@@@$$$$OOOOOOOOOOOO",
"OOOOOOOOOOOOOO    ++++++++++++++++++++    @@@@@@@@@@$$$$OOOOOOOO",
"OOOOOOOOOOOOOO    ++++++++++++++++++++    @@@@@@@@@@$$$$OOOOOOOO",
"OOOOOOOOOOOOOO    ++++++++++++++++++++    @@@@@@@@@@$$$$OOOOOOOO",
"OOOOOOOOOOOOOO    ++++++++++++++++++++    @@@@@@@@@@$$$$OOOOOOOO",
"OOOO$$$$OO    oooo++++++++++++oooo++++++++    OO@@@@@@@@$$$$$$$$",
"OOOO$$$$OO    oooo++++++++++++oooo++++++++    OO@@@@@@@@$$$$$$$$",
"OOOO$$$$OO    oooo++++++++++++oooo++++++++    OO@@@@@@@@$$$$$$$$",
"OOOO$$$$OO    oooo++++++++++++oooo++++++++    OO@@@@@@@@$$$$$$$$",
"$$$$OOOO@@    oooooooo++++oooooooooooo++++++++    OO@@@@@@@@@@@@",
"$$$$OOOO@@    oooooooo++++oooooooooooo++++++++    OO@@@@@@@@@@@@",
"$$$$OOOO@@    oooooooo++++oooooooooooo++++++++    OO@@@@@@@@@@@@",
"$$$$OOOO@@    oooooooo++++oooooooooooo++++++++    OO@@@@@@@@@@@@",
"@@@@OO    oooooooo++++++++++++oooooooo++++++++++++    OO@@@@OOOO",
"@@@@OO    oooooooo++++++++++++oooooooo++++++++++++    OO@@@@OOOO",
"@@@@OO    oooooooo++++++++++++oooooooo++++++++++++    OO@@@@OOOO",
"@@@@OO    oooooooo++++++++++++oooooooo++++++++++++    OO@@@@OOOO",
"OO    oooooooo++++oooooooooooooooo++++++++++++++++++++    OOOOOO",
"OO    oooooooo++++oooooooooooooooo++++++++++++++++++++    OOOOOO",
"OO    oooooooo++++oooooooooooooooo++++++++++++++++++++    OOOOOO",
"OO    oooooooo++++oooooooooooooooo++++++++++++++++++++    OOOOOO",
"OO    oooo++++++++oooooooo++++++++++++++++++++........    OOOOOO",
"OO    oooo++++++++oooooooo++++++++++++++++++++........    OOOOOO",
"OO    oooo++++++++oooooooo++++++++++++++++++++........    OOOOOO",
"OO    oooo++++++++oooooooo++++++++++++++++++++........    OOOOOO",
"@@$$$$$$$$oooo++++++++oooooooo++++++++++++............    OOOOOO",
"@@$$$$$$$$oooo++++++++oooooooo++++++++++++............    OOOOOO",
"@@$$$$$$$$oooo++++++++oooooooo++++++++++++............    OOOOOO",
"@@$$$$$$$$oooo++++++++oooooooo++++++++++++............    OOOOOO",
"@@@@@@$$$$oooooooo++++++++oooooooooooo++++........oooo    @@OOOO",
"@@@@@@$$$$oooooooo++++++++oooooooooooo++++........oooo    @@OOOO",
"@@@@@@$$$$oooooooo++++++++oooooooooooo++++........oooo    @@OOOO",
"@@@@@@$$$$oooooooo++++++++oooooooooooo++++........oooo    @@OOOO",
"OO@@@@@@@@$$$$....$$$$oooo++++oooooooo........oooooooo    OOOOOO",
"OO@@@@@@@@$$$$....$$$$oooo++++oooooooo........oooooooo    OOOOOO",
"OO@@@@@@@@$$$$....$$$$oooo++++oooooooo........oooooooo    OOOOOO",
"OO@@@@@@@@$$$$....$$$$oooo++++oooooooo........oooooooo    OOOOOO",
"OOOO$$@@@@@@@@$$$$$$$$$$$$....oooooooo....oooo........    @@@@OO",
"OOOO$$@@@@@@@@$$$$$$$$$$$$....oooooooo....oooo........    @@@@OO",
"OOOO$$@@@@@@@@$$$$$$$$$$$$....oooooooo....oooo........    @@@@OO",
"OOOO$$@@@@@@@@$$$$$$$$$$$$....oooooooo....oooo........    @@@@OO",
"$$@@@@@@@@$$OO@@@@@@@@$$$$$$$$....oooo........$$$$........$$$$@@",
"$$@@@@@@@@$$OO@@@@@@@@$$$$$$$$....oooo........$$$$........$$$$@@",
"$$@@@@@@@@$$OO@@@@@@@@$$$$$$$$....oooo........$$$$........$$$$@@",
"$$@@@@@@@@$$OO@@@@@@@@$$$$$$$$....oooo........$###........$$$$@@",
"@@@@@@@@@@@@$$$$OO@@@@@@@@@@@@$$$$........$$$$....$$$$$$$$@@@@$$",
"@@@@@@@@@@@@$$$$OO@@@@@@@@@@@@$$$$........$$$$....$$$$$$$$@@@@$$",
"@@@@@@@@@@@@$$$$OO@@@@@@@@@@@@$$$$........$$$$....$$$$$$$$@@@@$$",
"@@@@@@@@@@@@$$$$OO@@@@@@@@@@@@$$$$........$$$$....$$$$$$$$@@@@$$",
"@@@@OOOO@@@@@@@@@@$$$$$$OO@@@@@@@@$$$$$$$$$$$$@@@@@@@@@@@@$$@@@@",
"@@@@OOOO@@@@@@@@@@$$$$$$OO@@@@@@@@$$$$$$$$$$$$@@@@@@@@@@@@$$@@@@",
"@@@@OOOO@@@@@@@@@@$$$$$$OO@@@@@@@@$$$$$$$$$$$$@@@@@@@@@@@@$$@@@@",
"@@@@OOOO@@@@@@@@@@$$$$$$OO@@@@@@@@$$$$$$$$$$$$@@@@@@@@@@@@$$@@@@",
"OOOO@@@@OOOO@@@@@@@@@@@@$$$$OOOO@@@@@@@@@@@@@@OO$$$$@@@@@@@@@@@@",
"OOOO@@@@OOOO@@@@@@@@@@@@$$$$OOOO@@@@@@@@@@@@@@OO$$$$@@@@@@@@@@@@",
"OOOO@@@@OOOO@@@@@@@@@@@@$$$$OOOO@@@@@@@@@@@@@@OO$$$$@@@@@@@@@@@@",
"OOOO@@@@OOOO@@@@@@@@@@@@$$$$OOOO@@@@@@@@@@@@@@OO$$$$@@@@@@@@@@@@"
};
