/* XPM */
static char *e4b1cbd5d5dc41168ac3ea83b9c8c6a66NIHU304cChwmEnv[] = {
/* columns rows colors chars-per-pixel */
"64 64 8 1 ",
"  c None",
". c black",
"X c #7D3833",
"o c #AB5130",
"O c #4FA4B8",
"+ c #A3A7C2",
"@ c #DFE0E8",
"# c #F5FFE8",
/* pixels */
"                                                                ",
"                                                                ",
"                                                                ",
"                                                                ",
"                                                                ",
"                                                                ",
"                                                                ",
"                                                                ",
"                                                                ",
"                                                                ",
"                                                                ",
"                                                                ",
"                                                                ",
"                                                                ",
"                                                                ",
"                                                                ",
"                                                                ",
"                                                                ",
"                                                                ",
"                                                                ",
"                                    ........                    ",
"                                    ........                    ",
"                                    ........                    ",
"                                    ........                    ",
"                                ....oooooooo....                ",
"                                ....oooooooo....                ",
"                                ....oooooooo....                ",
"                                ....oooooooo....                ",
"                        ........####++++XXXX....                ",
"                        ........####++++XXXX....                ",
"                        ........####++++XXXX....                ",
"                        ........####++++XXXX....                ",
"                    ....########@@@@@@@@....                    ",
"                    ....########@@@@@@@@....                    ",
"                    ....########@@@@@@@@....                    ",
"                    ....########@@@@@@@@....                    ",
"                ....########@@@@@@@@....                        ",
"                ....########@@@@@@@@....                        ",
"                ....########@@@@@@@@....                        ",
"                ....########@@@@@@@@....                        ",
"        OOOO....########@@@@@@@@++++....                        ",
"        OOOO....########@@@@@@@@++++....                        ",
"        OOOO....########@@@@@@@@++++....                        ",
"        OOOO....########@@@@@@@@++++....                        ",
"    OOOO....########@@@@@@@@++++....OOOO                        ",
"    OOOO....########@@@@@@@@++++....OOOO                        ",
"    OOOO....########@@@@@@@@++++....OOOO                        ",
"    OOOO....########@@@@@@@@++++....OOOO                        ",
"        OOOOOOOOOOOOOOOOOOOOOOOOOOOO                            ",
"        OOOOOOOOOOOOOOOOOOOOOOOOOOOO                            ",
"        OOOOOOOOOOOOOOOOOOOOOOOOOOOO                            ",
"        OOOOOOOOOOOOOOOOOOOOOOOOOOOO                            ",
"                                                                ",
"                                                                ",
"                                                                ",
"                                                                ",
"                                                                ",
"                                                                ",
"                                                                ",
"                                                                ",
"                                                                ",
"                                                                ",
"                                                                ",
"                                                                "
};
