/* XPM */
static char *_506d88f515246e1bf3b77a70521aa50dHDEK8elbhcV6jzY[] = {
/* columns rows colors chars-per-pixel */
"64 64 8 1 ",
"  c None",
". c black",
"X c #7D3833",
"o c #AB5130",
"O c #4FA4B8",
"+ c #A3A7C2",
"@ c #DFE0E8",
"# c #F5FFE8",
/* pixels */
"                                                                ",
"                                                                ",
"                                                                ",
"                                                                ",
"                                                                ",
"                                                                ",
"                                                                ",
"                                                                ",
"                                                                ",
"                                                                ",
"                                                                ",
"                                                                ",
"                                                                ",
"                                                                ",
"                                                                ",
"                                                                ",
"                                                                ",
"                                                                ",
"                                                                ",
"                                                                ",
"                                   ........                     ",
"                                   ........                     ",
"                                   ........                     ",
"                                   ........                     ",
"                               ....oooooooo....                 ",
"                               ....oooooooo....                 ",
"                               ....oooooooo....                 ",
"                               ....oooooooo....                 ",
"                       ........####++++XXXX....                 ",
"                       ........####++++XXXX....                 ",
"                       ........####++++XXXX....                 ",
"                       ........####++++XXXX....                 ",
"                   ....########@@@@@@@@....                     ",
"                   ....########@@@@@@@@....                     ",
"                   ....########@@@@@@@@....                     ",
"                   ....########@@@@@@@@....                     ",
"               ....########@@@@@@@@....                         ",
"               ....########@@@@@@@@....                         ",
"               ....########@@@@@@@@....                         ",
"               ....########@@@@@@@@....                         ",
"       OOOO....########@@@@@@@@++++....                         ",
"       OOOO....########@@@@@@@@++++....                         ",
"       OOOO....########@@@@@@@@++++....                         ",
"       OOOO....########@@@@@@@@++++....                         ",
"   OOOO....########@@@@@@@@++++....OOOO                         ",
"   OOOO....########@@@@@@@@++++....OOOO                         ",
"   OOOO....########@@@@@@@@++++....OOOO                         ",
"   OOOO....########@@@@@@@@++++....OOOO                         ",
"       OOOOOOOOOOOOOOOOOOOOOOOOOOOO                             ",
"       OOOOOOOOOOOOOOOOOOOOOOOOOOOO                             ",
"       OOOOOOOOOOOOOOOOOOOOOOOOOOOO                             ",
"       OOOOOOOOOOOOOOOOOOOOOOOOOOOO                             ",
"                                                                ",
"                                                                ",
"                                                                ",
"                                                                ",
"                                                                ",
"                                                                ",
"                                                                ",
"                                                                ",
"                                                                ",
"                                                                ",
"                                                                ",
"                                                                "
};
