/* XPM */
static char *_0f423900b66414dbd7d32bfc36820723x0S7z5V1GYppeJh[] = {
/* columns rows colors chars-per-pixel */
"64 64 10 1 ",
"  c black",
". c #7D3833",
"X c #AB5130",
"o c #4FA4B8",
"O c #50A4B8",
"+ c #A3A7C2",
"@ c #92E8C0",
"# c #DFE0E8",
"$ c #F4FFE8",
"% c #F5FFE8",
/* pixels */
"@@@@oooo@@@@oooo@@@@oooo@@@@oooooooooooooooo%%%%@@@@oooo@@@@oooo",
"@@@@oooo@@@@oooo@@@@oooo@@@@oooooooooooooooo%%%%@@@@oooo@@@@oooo",
"@@@@oooo@@@@oooo@@@@oooo@@@@oooooooooooooooo%%%%@@@@oooo@@@@oooo",
"@@@@oooo@@@@oooo@@@@oooo@@@@oooooooooooooooo%%%%@@@@oooo@@@@oooo",
"oooooooooooooooooooooooooooooooooooooooo%%%%@@@@%%%%oooooooooooo",
"oooooooooooooooooooooooooooooooooooooooo%%%%@@@@%%%%oooooooooooo",
"oooooooooooooooooooooooooooooooooooooooo%%%%@@@@%%%%oooooooooooo",
"oooooooooooooooooooooooooooooooooooooooo%%%%@@@@%%%%oooooooooooo",
"oooooooooooooooooooooooooooooooooooo%%%%@@@@@@@@@@@@%%%%oooooooo",
"oooooooooooooooooooooooooooooooooooo%%%%@@@@@@@@@@@@%%%%oooooooo",
"oooooooooooooooooooooooooooooooooooo%%%%@@@@@@@@@@@@%%%%oooooooo",
"oooooooooooooooooooooooooooooooooooo%%%%@@@@@@@@@@@@%%%%oooooooo",
"oooo%%%%oooooooooooo%%%%oooo%%%%%%%%@@@@@@@@oooo@@@@@@@@%%%%%%%%",
"oooo%%%%oooooooooooo%%%%oooo%%%%%%%%@@@@@@@@oooo@@@@@@@@%%%%%%%%",
"oooo%%%%oooooooooooo%%%%oooo%%%%%%%%@@@@@@@@oooo@@@@@@@@%%%%%%%%",
"oooo%%%%oooooooooooo%%%%oooo%%%%%%%%@@@@@@@@oooo@@@@@@@@%%%%%%%%",
"%%%%oooo@@@@oooo@@@@oooo%%%%@@@@@@@@@@@@oooo@@@@oooo@@@@@@@@@@@@",
"%%%%oooo@@@@oooo@@@@oooo%%%%@@@@@@@@@@@@oooo@@@@oooo@@@@@@@@@@@@",
"%%%%oooo@@@@oooo@@@@oooo%%%%@@@@@@@@@@@@oooo@@@@oooo@@@@@@@@@@@@",
"%%%%oooo@@@@oooo@@@@oooo%%%%@@@@@@@@@@@@oooo@@@@oooo@@@@@@@@@@@@",
"@@@@oooooooooooooooooooooooo%%%%@@@@        oooo@@@@oooo@@@@oooo",
"@@@@oooooooooooooooooooooooo%%%%@@@@        oooo@@@@oooo@@@@oooo",
"@@@@oooooooooooooooooooooooo%%%%@@@@        oooo@@@@oooo@@@@oooo",
"@@@@oooooooooooooooooooooooo%%%%@@@@        oooo@@@@oooo@@@@oooo",
"oooooooooooooooooooooooo%%%%@@@@    XXXXXXXX    oooooooooooooooo",
"oooooooooooooooooooooooo%%%%@@@@    XXXXXXXX    oooooooooooooooo",
"oooooooooooooooooooooooo%%%%@@@@    XXXXXXXX    oooooooooooooooo",
"oooooooooooooooooooooooo%%%%@@@@    XXXXXXXX    oooooooooooooooo",
"oooooooooooooooooooo%%%%        %%%%++++....    oooooooooooooooo",
"oooooooooooooooooooo%%%%        %%%%++++....    oooooooooooooooo",
"oooooooooooooooooooo%%%%        %%%%++++....    oooooooooooooooo",
"oooooooooooooooooooo%%%%        %%%%++++....    oooooooooooooooo",
"oooo%%%%oooo%%%%%%%%    %%%%%%%%########    %%%%oooo%%%%oooooooo",
"oooo%%%%oooo%%%%%%%%    %%%%%%%%########    %%%%oooo%%%%oooooooo",
"oooo%%%%oooo%%%%%%%%    %%%%%%%%########    %%%%oooo%%%%oooooooo",
"oooo%%%%oooo%%%%%%%%    %%%%%%%%########    %%%%oooo%%%%oooooooo",
"@@@@oooo%%%%@@@@    %%%%%%%%########    @@@@@@@@%%%%oooo@@@@oooo",
"@@@@oooo%%%%@@@@    %%%%%%%%########    @@@@@@@@%%%%oooo@@@@oooo",
"@@@@oooo%%%%@@@@    %%%%%%%%########    @@@@@@@@%%%%oooo@@@@oooo",
"@@@@oooo%%%%@@@@    %%%%%%%%########    @@@@@@@@%%%%oooo@@@@oooo",
"oooooooooooo    %%%%%%%%########++++    @@@@oooo@@@@oooooooooooo",
"oooooooooooo    %%%%%%%%########++++    @@@@oooo@@@@oooooooooooo",
"oooooooooooo    %%%%%%%%########++++    @@@@oooo@@@@oooooooooooo",
"oooooooooooo    %%%%%%%%########++++    @@@@oooo@@@@oooooooooooo",
"oooooooo    %%%%%%%%########++++    oooooooooooooooooooooooooooo",
"oooooooo    %%%%%%%%########++++    oooooooooooooooooooooooooooo",
"oooooooo    %%%%%%%%########++++    oooooooooooooooooooooooooooo",
"oooooooo    %%%%%%%%########++++    oooooooooooooooooooooooooooo",
"%%%%@@@@oooooooooooooooooooooooooooooooooooooooooooooooooooooooo",
"%%%%@@@@oooooooooooooooooooooooooooooooooooooooooooooooooooooooo",
"%%%%@@@@oooooooooooooooooooooooooooooooooooooooooooooooooooooooo",
"%%%%@@@@ooooooooooooooooooooooooooooooooooooooooooooooooooooOOOO",
"@@@@@@@@@@@@%%%%oooooooooooooooooooooooooooooooooooooooooooo%%%%",
"@@@@@@@@@@@@%%%%oooooooooooooooooooooooooooooooooooooooooooo%%%%",
"@@@@@@@@@@@@%%%%oooooooooooooooooooooooooooooooooooooooooooo%%%%",
"@@@@@@@@@@@@%%%%ooooooooooooooooooooooooooooOOooooooOOOOOOOO%%%%",
"@@@@oooo@@@@@@@@%%%%%%%%oooo%%%%oooooooooooo%%%%oooo%%%%%%%%@@@@",
"@@@@oooo@@@@@@@@%%%%%%%%oooo%%%%oooooooooooo%%%%oooo%%%%%%%%@@@@",
"@@@@oooo@@@@@@@@%%%%%%%%oooo%%%%oooooooooooo%%%%oooo%%%%%%%%@@@@",
"@@@@oooo@@@@@@@@%%%%%%%%oooo%%%%oooooooooooo%%$$OOOO%%%%%%%%@@@@",
"oooo@@@@oooo@@@@@@@@@@@@%%%%oooo@@@@oooo@@@@oooo%%%%@@@@@@@@@@@@",
"oooo@@@@oooo@@@@@@@@@@@@%%%%oooo@@@@oooo@@@@oooo%%%%@@@@@@@@@@@@",
"oooo@@@@oooo@@@@@@@@@@@@%%%%oooo@@@@oooo@@@@oooo%%%%@@@@@@@@@@@@",
"oooo@@@@oooo@@@@@@@@@@@@%%%%oooo@@@@oooo@@@@oooo%%%%@@@@@@@@@@@@"
};
