/* XPM */
static char *_a56a09efa5b46c2cfd04da429660128r720GMTklqWmSilb[] = {
/* columns rows colors chars-per-pixel */
"64 64 7 1 ",
"  c #3A3F5E",
". c #4C6885",
"X c #4FA4B8",
"o c #50A4B8",
"O c #92E8C0",
"+ c #F4FFE8",
"@ c #F5FFE8",
/* pixels */
"OOOOXXXXOOOOXXXXOOOOXXXXOOOOXXXXXXXXXXXXXXXX@@@@OOOOXXXXOOOOXXXX",
"OOOOXXXXOOOOXXXXOOOOXXXXOOOOXXXXXXXXXXXXXXXX@@@@OOOOXXXXOOOOXXXX",
"OOOOXXXXOOOOXXXXOOOOXXXXOOOOXXXXXXXXXXXXXXXX@@@@OOOOXXXXOOOOXXXX",
"OOOOXXXXOOOOXXXXOOOOXXXXOOOOXXXXXXXXXXXXXXXX@@@@OOOOXXXXOOOOXXXX",
"XXXXXXXXXXXXXXXXXXXXXXXXXXXXXXXXXXXXXXXX@@@@@@@@@@@@XXXXXXXXXXXX",
"XXXXXXXXXXXXXXXXXXXXXXXXXXXXXXXXXXXXXXXX@@@@@@@@@@@@XXXXXXXXXXXX",
"XXXXXXXXXXXXXXXXXXXXXXXXXXXXXXXXXXXXXXXX@@@@@@@@@@@@XXXXXXXXXXXX",
"XXXXXXXXXXXXXXXXXXXXXXXXXXXXXXXXXXXXXXXX@@@@@@@@@@@@XXXXXXXXXXXX",
"XXXXXXXXXXXXXXXXXXXXXXXXXXXXXXXXXXXX@@@@OOOOOOOOOOOO@@@@@@@@XXXX",
"XXXXXXXXXXXXXXXXXXXXXXXXXXXXXXXXXXXX@@@@OOOOOOOOOOOO@@@@@@@@XXXX",
"XXXXXXXXXXXXXXXXXXXXXXXXXXXXXXXXXXXX@@@@OOOOOOOOOOOO@@@@@@@@XXXX",
"XXXXXXXXXXXXXXXXXXXXXXXXXXXXXXXXXXXX@@@@OOOOOOOOOOOO@@@@@@@@XXXX",
"XXXX@@@@XXXXOOOOXXXX@@@@@@@@@@@@@@@@OOOOOOOOOOOOOOOOOOOO@@@@@@@@",
"XXXX@@@@XXXXOOOOXXXX@@@@@@@@@@@@@@@@OOOOOOOOOOOOOOOOOOOO@@@@@@@@",
"XXXX@@@@XXXXOOOOXXXX@@@@@@@@@@@@@@@@OOOOOOOOOOOOOOOOOOOO@@@@@@@@",
"XXXX@@@@XXXXOOOOXXXX@@@@@@@@@@@@@@@@OOOOOOOOOOOOOOOOOOOO@@@@@@@@",
"@@@@XXXX@@@@OOOO@@@@OOOOXXXXXXXXOOOOOOOOOOOO@@@@@@@@@@@@OOOOOOOO",
"@@@@XXXX@@@@OOOO@@@@OOOOXXXXXXXXOOOOOOOOOOOO@@@@@@@@@@@@OOOOOOOO",
"@@@@XXXX@@@@OOOO@@@@OOOOXXXXXXXXOOOOOOOOOOOO@@@@@@@@@@@@OOOOOOOO",
"@@@@XXXX@@@@OOOO@@@@OOOOXXXXXXXXOOOOOOOOOOOO@@@@@@@@@@@@OOOOOOOO",
"OOOO@@@@XXXXOOOOOOOOXXXXOOOOOOOOOOOOXXXXXXXX....OOOOOOOO@@@@XXXX",
"OOOO@@@@XXXXOOOOOOOOXXXXOOOOOOOOOOOOXXXXXXXX....OOOOOOOO@@@@XXXX",
"OOOO@@@@XXXXOOOOOOOOXXXXOOOOOOOOOOOOXXXXXXXX....OOOOOOOO@@@@XXXX",
"OOOO@@@@XXXXOOOOOOOOXXXXOOOOOOOOOOOOXXXXXXXX....OOOOOOOO@@@@XXXX",
"@@@@OOOOXXXXOOOOOOOO........XXXXXXXX........XXXXOOOOOOOOOOOO@@@@",
"@@@@OOOOXXXXOOOOOOOO........XXXXXXXX........XXXXOOOOOOOOOOOO@@@@",
"@@@@OOOOXXXXOOOOOOOO........XXXXXXXX........XXXXOOOOOOOOOOOO@@@@",
"@@@@OOOOXXXXOOOOOOOO........XXXXXXXX........XXXXOOOOOOOOOOOO@@@@",
"@@@@OOOOOOOOXXXX....                        ....XXXXOOOOOOOO@@@@",
"@@@@OOOOOOOOXXXX....                        ....XXXXOOOOOOOO@@@@",
"@@@@OOOOOOOOXXXX....                        ....XXXXOOOOOOOO@@@@",
"@@@@OOOOOOOOXXXX....                        ....XXXXOOOOOOOO@@@@",
"@@@@OOOOOOOOOOOOXXXX....                ....OOOOOOOOXXXXOOOO@@@@",
"@@@@OOOOOOOOOOOOXXXX....                ....OOOOOOOOXXXXOOOO@@@@",
"@@@@OOOOOOOOOOOOXXXX....                ....OOOOOOOOXXXXOOOO@@@@",
"@@@@OOOOOOOOOOOOXXXX....                ....OOOOOOOOXXXXOOOO@@@@",
"OOOO@@@@OOOOOOOO....XXXXXXXXOOOOOOOOOOOOXXXXOOOOOOOOXXXX@@@@XXXX",
"OOOO@@@@OOOOOOOO....XXXXXXXXOOOOOOOOOOOOXXXXOOOOOOOOXXXX@@@@XXXX",
"OOOO@@@@OOOOOOOO....XXXXXXXXOOOOOOOOOOOOXXXXOOOOOOOOXXXX@@@@XXXX",
"OOOO@@@@OOOOOOOO....XXXXXXXXOOOOOOOOOOOOXXXXOOOOOOOOXXXX@@@@XXXX",
"XXXXXXXX@@@@@@@@@@@@OOOOOOOOOOOOXXXXXXXXOOOO@@@@@@@@OOOOXXXXXXXX",
"XXXXXXXX@@@@@@@@@@@@OOOOOOOOOOOOXXXXXXXXOOOO@@@@@@@@OOOOXXXXXXXX",
"XXXXXXXX@@@@@@@@@@@@OOOOOOOOOOOOXXXXXXXXOOOO@@@@@@@@OOOOXXXXXXXX",
"XXXXXXXX@@@@@@@@@@@@OOOOOOOOOOOOXXXXXXXXOOOO@@@@@@@@OOOOXXXXXXXX",
"@@@@@@@@XXXXOOOOOOOOOOOOXXXX@@@@@@@@@@@@@@@@XXXXXXXXOOOOXXXXXXXX",
"@@@@@@@@XXXXOOOOOOOOOOOOXXXX@@@@@@@@@@@@@@@@XXXXXXXXOOOOXXXXXXXX",
"@@@@@@@@XXXXOOOOOOOOOOOOXXXX@@@@@@@@@@@@@@@@XXXXXXXXOOOOXXXXXXXX",
"@@@@@@@@XXXXOOOOOOOOOOOOXXXX@@@@@@@@@@@@@@@@XXXXXXXXOOOOXXXXXXXX",
"@@@@@@@@@@@@XXXXXXXXXXXXXXXXXXXXXXXXXXXXXXXXXXXXXXXXXXXXXXXXXXXX",
"@@@@@@@@@@@@XXXXXXXXXXXXXXXXXXXXXXXXXXXXXXXXXXXXXXXXXXXXXXXXXXXX",
"@@@@@@@@@@@@XXXXXXXXXXXXXXXXXXXXXXXXXXXXXXXXXXXXXXXXXXXXXXXXXXXX",
"@@@@@@@@@@@@XXXXXXXXXXXXXXXXXXXXXXXXXXXXXXXXXXXXXXXXXXXXXXXXoooo",
"OOOOOOOOOOOO@@@@@@@@@@@@XXXXXXXXXXXXXXXXXXXXXXXXXXXXXXXXXXXX@@@@",
"OOOOOOOOOOOO@@@@@@@@@@@@XXXXXXXXXXXXXXXXXXXXXXXXXXXXXXXXXXXX@@@@",
"OOOOOOOOOOOO@@@@@@@@@@@@XXXXXXXXXXXXXXXXXXXXXXXXXXXXXXXXXXXX@@@@",
"OOOOOOOOOOOO@@@@@@@@@@@@XXXXXXXXXXXXXXXXXXXXooXXXXXXXXoooooo@@@@",
"OOOOXXXXOOOOOOOO@@@@@@@@XXXX@@@@XXXXXXXXXXXX@@@@XXXX@@@@@@@@OOOO",
"OOOOXXXXOOOOOOOO@@@@@@@@XXXX@@@@XXXXXXXXXXXX@@@@XXXX@@@@@@@@OOOO",
"OOOOXXXXOOOOOOOO@@@@@@@@XXXX@@@@XXXXXXXXXXXX@@@@XXXX@@@@@@@@OOOO",
"OOOOXXXXOOOOOOOO@@@@@@@@XXXX@@@@XXXXXXXXXXXX@@++oooo@@@@@@@@OOOO",
"XXXXOOOOXXXXOOOOOOOOOOOO@@@@XXXXOOOOXXXXOOOOXXXX@@@@OOOOOOOOOOOO",
"XXXXOOOOXXXXOOOOOOOOOOOO@@@@XXXXOOOOXXXXOOOOXXXX@@@@OOOOOOOOOOOO",
"XXXXOOOOXXXXOOOOOOOOOOOO@@@@XXXXOOOOXXXXOOOOXXXX@@@@OOOOOOOOOOOO",
"XXXXOOOOXXXXOOOOOOOOOOOO@@@@XXXXOOOOXXXXOOOOXXXX@@@@OOOOOOOOOOOO"
};
