/* XPM */
static char *_dfc8d95fe8c41308621a87099cc598bBk1wKmBmFVMtfBoc[] = {
/* columns rows colors chars-per-pixel */
"64 64 7 1 ",
"  c None",
". c black",
"X c #781D4F",
"o c #E64539",
"O c #AD2F45",
"+ c #63AB3F",
"@ c #C8D45D",
/* pixels */
"                                                                ",
"                                                                ",
"                                                                ",
"                                                                ",
"                                                                ",
"                                                                ",
"                                                                ",
"                                                                ",
"                                                                ",
"                                                                ",
"                                                                ",
"                                                                ",
"                        ........                                ",
"                        ........                                ",
"                        ........                                ",
"                        ........                                ",
"                    ....ooooXXXX....                            ",
"                    ....ooooXXXX....                            ",
"                    ....ooooXXXX....                            ",
"                    ....ooooXXXX....                            ",
"                ....oooooooo@@@@XXXX....                        ",
"                ....oooooooo@@@@XXXX....                        ",
"                ....oooooooo@@@@XXXX....                        ",
"                ....oooooooo@@@@XXXX....                        ",
"            ....ooooooooOOOO@@@@XXXXXXXX....                    ",
"            ....ooooooooOOOO@@@@XXXXXXXX....                    ",
"            ....ooooooooOOOO@@@@XXXXXXXX....                    ",
"            ....ooooooooOOOO@@@@XXXXXXXX....                    ",
"        ....ooooooooOOOOOOOO@@@@XXXXXXXX....                    ",
"        ....ooooooooOOOOOOOO@@@@XXXXXXXX....                    ",
"        ....ooooooooOOOOOOOO@@@@XXXXXXXX....                    ",
"        ....ooooooooOOOOOOOO@@@@XXXXXXXX....                    ",
"    ....ooooooooOOOOOOOOOOOO@@@@XXXX....++++++++++++            ",
"    ....ooooooooOOOOOOOOOOOO@@@@XXXX....++++++++++++            ",
"    ....ooooooooOOOOOOOOOOOO@@@@XXXX....++++++++++++            ",
"    ....ooooooooOOOOOOOOOOOO@@@@XXXX....++++++++++++            ",
"++++++++++++++++++++@@@@@@@@@@@@@@@@@@@@@@@@@@@@++++++++        ",
"++++++++++++++++++++@@@@@@@@@@@@@@@@@@@@@@@@@@@@++++++++        ",
"++++++++++++++++++++@@@@@@@@@@@@@@@@@@@@@@@@@@@@++++++++        ",
"++++++++++++++++++++@@@@@@@@@@@@@@@@@@@@@@@@@@@@++++++++        ",
"                ++++++++++++++++@@@@@@@@@@@@@@@@@@@@++++++++    ",
"                ++++++++++++++++@@@@@@@@@@@@@@@@@@@@++++++++    ",
"                ++++++++++++++++@@@@@@@@@@@@@@@@@@@@++++++++    ",
"                ++++++++++++++++@@@@@@@@@@@@@@@@@@@@++++++++    ",
"                            ++++++++++++++++++++++++++++++++++++",
"                            ++++++++++++++++++++++++++++++++++++",
"                            ++++++++++++++++++++++++++++++++++++",
"                            ++++++++++++++++++++++++++++++++++++",
"                                            ++++++++            ",
"                                            ++++++++            ",
"                                            ++++++++            ",
"                                            ++++++++            ",
"                                                                ",
"                                                                ",
"                                                                ",
"                                                                ",
"                                                                ",
"                                                                ",
"                                                                ",
"                                                                ",
"                                                                ",
"                                                                ",
"                                                                ",
"                                                                "
};
