/* XPM */
static char *fb4f51f191294837deab39a872f1cb66tbz1La1H6eUsPBc2[] = {
/* columns rows colors chars-per-pixel */
"64 64 3 1 ",
"  c #3A3F5E",
". c #4C6885",
"X c #4FA4B8",
/* pixels */
"                    XXXX....                        XXXX....    ",
"                    XXXX....                        XXXX....    ",
"                    XXXX....                        XXXX....    ",
"                    XXXX....                        XXXX....    ",
"                    ....                            ....        ",
"                    ....                            ....        ",
"                    ....                            ....        ",
"                    ....                            ....        ",
"                XXXX....XXXX                    XXXX....XXXX    ",
"                XXXX....XXXX                    XXXX....XXXX    ",
"                XXXX....XXXX                    XXXX....XXXX    ",
"                XXXX....XXXX                    XXXX....XXXX    ",
"....        XXXX....    ....XXXX        ....XXXX....    ....XXXX",
"....        XXXX....    ....XXXX        ....XXXX....    ....XXXX",
"....        XXXX....    ....XXXX        ....XXXX....    ....XXXX",
"....        XXXX....    ....XXXX        ....XXXX....    ....XXXX",
"    XXXX....                    ....XXXX                        ",
"    XXXX....                    ....XXXX                        ",
"    XXXX....                    ....XXXX                        ",
"    XXXX....                    ....XXXX                        ",
"    ....                            ....                        ",
"    ....                            ....                        ",
"    ....                            ....                        ",
"    ....                            ....                        ",
"XXXX....XXXX                    XXXX....XXXX                    ",
"XXXX....XXXX                    XXXX....XXXX                    ",
"XXXX....XXXX                    XXXX....XXXX                    ",
"XXXX....XXXX                    XXXX....XXXX                    ",
"....    ....XXXX        ....XXXX....    ....XXXX....        XXXX",
"....    ....XXXX        ....XXXX....    ....XXXX....        XXXX",
"....    ....XXXX        ....XXXX....    ....XXXX....        XXXX",
"....    ....XXXX        ....XXXX....    ....XXXX....        XXXX",
"                ........XXXX                        ....XXXX    ",
"                ........XXXX                        ....XXXX    ",
"                ........XXXX                        ....XXXX    ",
"                ........XXXX                        ....XXXX    ",
"                        ....                            ....    ",
"                        ....                            ....    ",
"                        ....                            ....    ",
"                        ....                            ....    ",
"                    XXXX....XXXX                    XXXX....XXXX",
"                    XXXX....XXXX                    XXXX....XXXX",
"                    XXXX....XXXX                    XXXX....XXXX",
"                    XXXX....XXXX                    XXXX....XXXX",
"XXXX....        XXXX....    ....XXXX        ....XXXX....    ....",
"XXXX....        XXXX....    ....XXXX        ....XXXX....    ....",
"XXXX....        XXXX....    ....XXXX        ....XXXX....    ....",
"XXXX....        XXXX....    ....XXXX        ....XXXX....    ....",
"        XXXX....                    ....XXXX                    ",
"        XXXX....                    ....XXXX                    ",
"        XXXX....                    ....XXXX                    ",
"        XXXX....                    ....XXXX                    ",
"        ....                            ....                    ",
"        ....                            ....                    ",
"        ....                            ....                    ",
"        ....                            ....                    ",
"    XXXX....XXXX                    XXXX....XXXX                ",
"    XXXX....XXXX                    XXXX....XXXX                ",
"    XXXX....XXXX                    XXXX....XXXX                ",
"    XXXX....XXXX                    XXXX....XXXX                ",
"XXXX....    ....XXXX        ....XXXX....    ....XXXX        ....",
"XXXX....    ....XXXX        ....XXXX....    ....XXXX        ....",
"XXXX....    ....XXXX        ....XXXX....    ....XXXX        ....",
"XXXX....    ....XXXX        ....XXXX....    ....XXXX        ...."
};
